<svg width="1728" height="1117" viewBox="0 0 1728 1117" fill="none" xmlns="http://www.w3.org/2000/svg">
<g clip-path="url(#clip0_452_29422)">
<rect width="1729" height="2213" fill="white"/>
<g filter="url(#filter0_f_452_29422)">
<path d="M-753.927 961.543C-780.181 854.202 -829.492 652.597 -858 536.045C-200.823 375.305 355.221 340.251 383.96 457.749C412.699 575.247 -96.75 800.803 -753.927 961.543Z" fill="#FFE662" fill-opacity="0.33"/>
</g>
<g filter="url(#filter1_f_452_29422)">
<path d="M564.073 1503.54C537.819 1396.2 488.508 1194.6 460 1078.04C1117.18 917.305 1673.22 882.251 1701.96 999.749C1730.7 1117.25 1221.25 1342.8 564.073 1503.54Z" fill="#FFE662" fill-opacity="0.33"/>
</g>
<g filter="url(#filter2_f_452_29422)">
<path d="M267.073 887.543C240.819 780.202 191.508 578.597 163 462.045C820.177 301.305 1376.22 266.251 1404.96 383.749C1433.7 501.247 924.25 726.803 267.073 887.543Z" fill="#FFE662" fill-opacity="0.33"/>
</g>
<g filter="url(#filter3_f_452_29422)">
<path d="M1686.58 1505.45C1606.46 1177.9 1455.99 562.701 1369 207.045C2026.18 46.3052 2630.02 206.657 2717.71 565.2C2805.41 923.744 2343.75 1344.71 1686.58 1505.45Z" fill="#FFE662" fill-opacity="0.24"/>
</g>
<path d="M-45.4221 3007.45C-125.537 2679.9 -276.009 2064.7 -363 1709.04C294.177 1548.31 898.016 1708.66 985.713 2067.2C1073.41 2425.74 611.754 2846.71 -45.4221 3007.45Z" fill="#FFE662" fill-opacity="0.24"/>
<path d="M969.805 277.129C860.558 250.417 856.791 89.8323 868.563 12.8786V0H1727V1057C1698.28 844.9 1630.18 391.987 1587.62 277.129C1534.4 133.556 1382.78 161.698 1322.03 189.84C1261.29 217.982 1106.36 310.518 969.805 277.129Z" fill="#1E1E1E" fill-opacity="0.08"/>
<g opacity="0.2" clip-path="url(#clip1_452_29422)">
<path d="M-1 376.502C78.3202 160.154 254.875 -345.802 1093.89 -315.321C1932.9 -284.841 2348.3 -626.364 2355.21 -841.375" stroke="#1E1E1E" stroke-width="1.33686"/>
<path d="M297.12 895.871C376.44 679.522 744.834 254.446 1583.85 284.926C2422.86 315.407 2551.51 186.445 2558.42 -28.5659" stroke="#1E1E1E" stroke-width="1.33686"/>
<path d="M-1 1042.26C78.3202 825.909 331.076 501.766 1170.09 532.246C2009.1 562.727 2348.3 39.391 2355.21 -175.62" stroke="#1E1E1E" stroke-width="1.33686"/>
<g opacity="0.16">
<circle cx="1460.02" cy="95.0211" r="8.02115" fill="#1E1E1E"/>
<circle cx="1486.76" cy="95.0211" r="8.02115" fill="#1E1E1E"/>
<circle cx="1513.5" cy="95.0211" r="8.02115" fill="#1E1E1E"/>
<circle cx="1540.23" cy="95.0211" r="8.02115" fill="#1E1E1E"/>
<circle cx="1566.97" cy="95.0211" r="8.02115" fill="#1E1E1E"/>
<circle cx="1593.71" cy="95.0211" r="8.02115" fill="#1E1E1E"/>
<circle cx="1620.44" cy="95.0211" r="8.02115" fill="#1E1E1E"/>
<circle cx="1647.18" cy="95.0211" r="8.02115" fill="#1E1E1E"/>
<circle cx="1460.02" cy="121.758" r="8.02115" fill="#1E1E1E"/>
<circle cx="1486.76" cy="121.758" r="8.02115" fill="#1E1E1E"/>
<circle cx="1513.5" cy="121.758" r="8.02115" fill="#1E1E1E"/>
<circle cx="1540.23" cy="121.758" r="8.02115" fill="#1E1E1E"/>
<circle cx="1566.97" cy="121.758" r="8.02115" fill="#1E1E1E"/>
<circle cx="1593.71" cy="121.758" r="8.02115" fill="#1E1E1E"/>
<circle cx="1620.44" cy="121.758" r="8.02115" fill="#1E1E1E"/>
<circle cx="1647.18" cy="121.758" r="8.02115" fill="#1E1E1E"/>
<circle cx="1460.02" cy="148.496" r="8.02115" fill="#1E1E1E"/>
<circle cx="1486.76" cy="148.496" r="8.02115" fill="#1E1E1E"/>
<circle cx="1513.5" cy="148.496" r="8.02115" fill="#1E1E1E"/>
<circle cx="1540.23" cy="148.496" r="8.02115" fill="#1E1E1E"/>
<circle cx="1566.97" cy="148.496" r="8.02115" fill="#1E1E1E"/>
<circle cx="1593.71" cy="148.496" r="8.02115" fill="#1E1E1E"/>
<circle cx="1620.44" cy="148.496" r="8.02115" fill="#1E1E1E"/>
<circle cx="1647.18" cy="148.496" r="8.02115" fill="#1E1E1E"/>
<circle cx="1460.02" cy="175.233" r="8.02115" fill="#1E1E1E"/>
<circle cx="1486.76" cy="175.233" r="8.02115" fill="#1E1E1E"/>
<circle cx="1513.5" cy="175.233" r="8.02115" fill="#1E1E1E"/>
<circle cx="1540.23" cy="175.233" r="8.02115" fill="#1E1E1E"/>
<circle cx="1566.97" cy="175.233" r="8.02115" fill="#1E1E1E"/>
<circle cx="1593.71" cy="175.233" r="8.02115" fill="#1E1E1E"/>
<circle cx="1620.44" cy="175.233" r="8.02115" fill="#1E1E1E"/>
<circle cx="1647.18" cy="175.233" r="8.02115" fill="#1E1E1E"/>
<circle cx="1460.02" cy="201.97" r="8.02115" fill="#1E1E1E"/>
<circle cx="1486.76" cy="201.97" r="8.02115" fill="#1E1E1E"/>
<circle cx="1513.5" cy="201.97" r="8.02115" fill="#1E1E1E"/>
<circle cx="1540.23" cy="201.97" r="8.02115" fill="#1E1E1E"/>
<circle cx="1566.97" cy="201.97" r="8.02115" fill="#1E1E1E"/>
<circle cx="1593.71" cy="201.97" r="8.02115" fill="#1E1E1E"/>
<circle cx="1620.44" cy="201.97" r="8.02115" fill="#1E1E1E"/>
<circle cx="1647.18" cy="201.97" r="8.02115" fill="#1E1E1E"/>
<circle cx="1460.02" cy="228.707" r="8.02115" fill="#1E1E1E"/>
<circle cx="1486.76" cy="228.707" r="8.02115" fill="#1E1E1E"/>
<circle cx="1513.5" cy="228.707" r="8.02115" fill="#1E1E1E"/>
<circle cx="1540.23" cy="228.707" r="8.02115" fill="#1E1E1E"/>
<circle cx="1566.97" cy="228.707" r="8.02115" fill="#1E1E1E"/>
<circle cx="1593.71" cy="228.707" r="8.02115" fill="#1E1E1E"/>
<circle cx="1620.44" cy="228.707" r="8.02115" fill="#1E1E1E"/>
<circle cx="1647.18" cy="228.707" r="8.02115" fill="#1E1E1E"/>
</g>
</g>
</g>
<defs>
<filter id="filter0_f_452_29422" x="-1318" y="-71.7434" width="2163.12" height="1493.29" filterUnits="userSpaceOnUse" color-interpolation-filters="sRGB">
<feFlood flood-opacity="0" result="BackgroundImageFix"/>
<feBlend mode="normal" in="SourceGraphic" in2="BackgroundImageFix" result="shape"/>
<feGaussianBlur stdDeviation="230" result="effect1_foregroundBlur_452_29422"/>
</filter>
<filter id="filter1_f_452_29422" x="0" y="470.257" width="2163.12" height="1493.29" filterUnits="userSpaceOnUse" color-interpolation-filters="sRGB">
<feFlood flood-opacity="0" result="BackgroundImageFix"/>
<feBlend mode="normal" in="SourceGraphic" in2="BackgroundImageFix" result="shape"/>
<feGaussianBlur stdDeviation="230" result="effect1_foregroundBlur_452_29422"/>
</filter>
<filter id="filter2_f_452_29422" x="-297" y="-145.743" width="2163.12" height="1493.29" filterUnits="userSpaceOnUse" color-interpolation-filters="sRGB">
<feFlood flood-opacity="0" result="BackgroundImageFix"/>
<feBlend mode="normal" in="SourceGraphic" in2="BackgroundImageFix" result="shape"/>
<feGaussianBlur stdDeviation="230" result="effect1_foregroundBlur_452_29422"/>
</filter>
<filter id="filter3_f_452_29422" x="909" y="-315.386" width="2279.4" height="2280.83" filterUnits="userSpaceOnUse" color-interpolation-filters="sRGB">
<feFlood flood-opacity="0" result="BackgroundImageFix"/>
<feBlend mode="normal" in="SourceGraphic" in2="BackgroundImageFix" result="shape"/>
<feGaussianBlur stdDeviation="230" result="effect1_foregroundBlur_452_29422"/>
</filter>
<clipPath id="clip0_452_29422">
<rect width="1730" height="1117" fill="white" transform="translate(-1)"/>
</clipPath>
<clipPath id="clip1_452_29422">
<rect width="1728" height="1696" fill="white" transform="translate(-1 -320)"/>
</clipPath>
</defs>
</svg>
